<?xml version="1.0" encoding="UTF-8"?>
<svg  width="32" height="31" xmlns="http://www.w3.org/2000/svg" version="1.1" xmlns:xlink="http://www.w3.org/1999/xlink"  viewBox="0 0 32 31"><path d="M31.99993,16.49975c0,0.8286 -0.67154,1.49966 -1.49998,1.49966c-0.39516,0 -0.75188,-0.15557 -1.01978,-0.40524l-0.00366,0.00347l-13.43834,-13.43847l0.00011,-0.0006l-0.03834,-0.03625v-0.0006l-13.44612,13.44678l-0.00069,-0.0006c-0.27088,0.26704 -0.6427,0.43152 -1.05309,0.43152c-0.82855,0 -1.50009,-0.67106 -1.50009,-1.49966c0,-0.42502 0.17704,-0.80821 0.46085,-1.08113l14.45801,-14.45843c0.27294,-0.28365 0.6562,-0.46067 1.08112,-0.46067c0.00023,0 0.00034,0 0.00057,0c0.02655,0 0.05287,0.0006 0.07908,0.00242c0.00412,0 0.00835,0.0006 0.01247,0.0006c0.02266,0.00166 0.04509,0.00347 0.06752,0.00589c0.00137,0 0.00286,0 0.00435,0.0006c0.36713,0.03987 0.6942,0.21221 0.93304,0.46792l0.0008,-0.0006l5.90218,5.90197v-1.37853c0,-0.8286 0.67154,-1.50026 1.49998,-1.50026c0.82844,0 1.49998,0.67167 1.49998,1.50026v4.37845l5.59788,5.59808l-0.00343,0.00362c0.24971,0.26764 0.40558,0.62469 0.40558,1.01981zM28.99998,18.99958v10.50002c0,0.82844 -0.67154,1.50026 -1.49998,1.50026h-3.00007v-12.00028h-5.99991v12.00028h-14.00002c-0.82844,0 -1.49998,-0.67182 -1.49998,-1.50026v-10.50002l12.99992,-12.9997zM13.49998,18.99958h-6.00002v6.00044h6.00002z" fill="#95e1d3" fill-opacity="1"></path></g></g></svg>